<?xml version="1.0" standalone="no"?>
<!DOCTYPE svg PUBLIC "-//W3C//DTD SVG 20010904//EN"
 "http://www.w3.org/TR/2001/REC-SVG-20010904/DTD/svg10.dtd">
<svg version="1.0" xmlns="http://www.w3.org/2000/svg"
 width="1000.000000pt" height="1000.000000pt" viewBox="0 0 1000.000000 1000.000000"
 preserveAspectRatio="xMidYMid meet">
<metadata>
Created by potrace 1.11, written by Peter Selinger 2001-2013
</metadata>
<g transform="translate(0.000000,1000.000000) scale(0.100000,-0.100000)"
fill="#000000" stroke="none">
<path d="M4908 8223 l-48 -4 0 -252 0 -253 73 3 c202 9 261 27 309 98 35 53
48 107 48 205 0 96 -16 138 -68 178 -33 26 -42 27 -151 28 -64 1 -137 -1 -163
-3z m227 -148 c20 -20 25 -34 25 -78 0 -105 -37 -147 -129 -147 l-41 0 0 125
0 125 60 0 c51 0 65 -4 85 -25z"/>
<path d="M5460 8225 c0 -3 -14 -116 -30 -252 -17 -135 -29 -247 -28 -248 3 -2
300 -28 337 -29 21 -1 26 6 37 54 7 30 9 58 6 62 -4 4 -60 13 -125 19 l-117
13 6 35 c4 20 8 39 10 42 1 3 33 2 71 -2 37 -5 84 -8 104 -8 36 -1 36 -1 48
56 6 31 9 58 6 61 -2 3 -50 9 -105 15 -90 9 -100 12 -100 30 0 21 13 21 206 1
l62 -7 8 54 c5 30 8 58 9 64 0 10 -134 27 -307 39 -54 4 -98 5 -98 1z"/>
<path d="M4620 8193 c-14 -2 -86 -13 -161 -24 -75 -12 -142 -25 -149 -29 -14
-9 -15 1 35 -374 8 -60 17 -112 20 -114 3 -3 69 5 148 17 78 12 159 24 180 27
l37 6 0 54 c0 40 -4 56 -16 61 -8 3 -66 -1 -127 -9 -62 -8 -113 -15 -114 -14
0 1 -3 19 -5 41 l-3 40 105 15 105 16 -3 59 c-2 33 -5 61 -7 63 -3 4 -131 -13
-187 -24 -23 -5 -28 -2 -28 14 0 24 13 27 156 45 l99 13 3 62 3 62 -33 -1
c-18 -1 -44 -3 -58 -6z"/>
<path d="M5956 7933 c-32 -131 -61 -243 -63 -250 -5 -14 105 -39 117 -26 5 4
20 51 34 103 13 52 31 115 39 140 17 54 14 60 78 -145 l46 -150 54 -16 c30
-10 57 -14 61 -10 6 5 178 467 178 477 0 7 -111 36 -123 31 -7 -2 -32 -66 -57
-141 -25 -75 -47 -136 -50 -136 -3 1 -29 75 -59 166 l-55 164 -35 10 c-20 5
-52 12 -71 15 l-35 6 -59 -238z"/>
<path d="M3708 7983 c-132 -43 -168 -59 -168 -73 0 -16 136 -449 143 -456 5
-5 99 26 110 36 4 4 -4 47 -18 95 -14 49 -24 94 -21 100 2 6 38 22 80 35 68
21 77 26 72 44 -2 12 -8 38 -11 59 -8 44 -13 44 -110 13 -66 -22 -84 -20 -85
6 0 4 44 21 98 38 53 17 102 32 109 35 8 3 7 20 -4 64 -9 34 -18 61 -22 61 -3
-1 -81 -26 -173 -57z"/>
<path d="M6766 7695 c-60 -130 -107 -237 -105 -239 9 -6 96 -36 106 -36 6 0
13 10 17 23 3 12 15 36 25 54 l20 32 53 -24 c111 -52 195 -24 263 86 59 96 55
182 -9 224 -26 17 -244 115 -255 115 -4 0 -56 -106 -115 -235z m229 42 c45
-26 55 -55 31 -93 -12 -18 -25 -24 -51 -24 -36 0 -85 18 -85 31 0 13 51 109
58 109 4 0 25 -11 47 -23z"/>
<path d="M3200 7781 c-75 -23 -150 -83 -182 -145 -53 -103 13 -281 125 -335
108 -52 269 7 327 119 41 81 30 202 -28 284 -49 72 -152 104 -242 77z m108
-137 c44 -30 72 -117 52 -163 -14 -34 -76 -71 -119 -71 -40 0 -72 31 -96 94
-17 44 -17 49 -2 82 31 63 115 93 165 58z"/>
<path d="M7245 7484 c-70 -113 -130 -214 -132 -224 -4 -14 7 -25 46 -44 l50
-26 45 70 c25 39 49 70 54 70 27 0 43 -43 54 -143 l12 -106 42 -31 c23 -16 46
-30 51 -30 4 0 8 52 8 115 l0 115 43 0 c59 0 108 25 143 73 54 74 51 140 -10
197 -37 35 -250 170 -269 170 -5 0 -67 -93 -137 -206z m246 -12 c58 -41 73
-74 41 -91 -14 -7 -31 -4 -68 13 -27 13 -58 30 -68 38 -19 15 -19 16 0 46 10
18 23 32 29 32 7 0 36 -17 66 -38z"/>
<path d="M4815 7500 c-40 -20 -69 -43 -88 -69 -48 -69 -63 -221 -28 -275 20
-31 18 -56 -5 -56 -18 0 -18 -10 1 -24 13 -9 10 -21 -22 -81 -20 -38 -61 -140
-89 -225 -48 -143 -54 -155 -78 -158 -31 -4 -33 8 -6 33 32 29 15 30 -33 1
l-45 -25 -6 31 c-6 30 -15 33 -20 6 -2 -7 -6 -20 -9 -28 -3 -8 -8 -26 -10 -40
l-3 -25 -12 28 c-15 36 -30 35 -24 -3 4 -29 4 -29 -39 -25 -24 2 -62 8 -84 14
-55 15 -150 13 -210 -3 -153 -41 -251 -127 -305 -267 -24 -64 -38 -169 -22
-169 17 0 29 29 35 88 25 221 284 378 503 306 52 -18 91 -49 74 -59 -6 -3 -10
-15 -10 -26 0 -10 -3 -19 -8 -19 -7 0 -25 -37 -37 -77 -3 -13 -10 -23 -14 -23
-5 0 -11 -22 -15 -48 -5 -39 -14 -55 -45 -85 -22 -20 -45 -37 -53 -37 -8 0
-18 -4 -24 -9 -5 -5 -25 -11 -45 -15 -34 -6 -38 -4 -48 24 -10 30 -11 31 -33
16 -13 -9 -40 -21 -60 -27 -39 -10 -73 -49 -43 -49 28 0 15 -70 -14 -70 -21
-1 -45 -19 -60 -48 -7 -12 -17 -20 -22 -16 -7 4 -7 -1 0 -15 16 -29 26 -26 50
15 12 19 25 33 29 30 12 -7 52 23 52 39 0 15 29 35 50 35 6 0 8 -4 5 -10 -4
-6 15 -10 50 -10 35 0 54 4 50 10 -3 6 -13 10 -20 10 -8 0 -12 6 -9 14 6 16
62 42 70 33 4 -3 28 5 55 19 35 19 60 25 94 23 37 -3 51 2 75 23 17 15 26 29
21 32 -4 3 -21 -6 -35 -19 -28 -25 -46 -32 -46 -16 0 5 6 14 14 20 10 8 13 23
9 46 -3 19 -1 47 5 64 8 22 7 31 -1 34 -9 3 -8 8 2 21 8 9 21 14 29 11 10 -4
13 0 10 13 -5 17 0 19 43 18 47 -1 57 -6 97 -58 12 -15 11 -20 -7 -40 -27 -28
-23 -41 15 -45 53 -7 98 -84 58 -100 -9 -3 -32 0 -51 6 -30 11 -41 11 -74 -4
-40 -18 -46 -33 -29 -65 8 -14 5 -19 -11 -23 -15 -4 -19 -2 -15 9 14 37 -57
28 -97 -12 -21 -21 -25 -30 -16 -41 14 -16 25 -10 -101 -65 -132 -58 -304
-117 -350 -119 -19 -2 -41 -7 -48 -13 -8 -5 -36 -10 -63 -10 -27 0 -49 -1 -49
-3 0 -2 69 -70 153 -153 83 -82 147 -150 140 -150 -19 0 -155 108 -181 145
-32 45 -46 45 -39 0 3 -19 2 -35 -4 -35 -5 0 -10 6 -10 13 -1 6 -2 19 -3 27 0
8 -16 24 -34 37 -29 19 -42 21 -100 16 -37 -3 -71 -9 -77 -14 -5 -5 -25 -9
-45 -9 -49 0 -80 -10 -80 -26 0 -7 -17 -18 -39 -24 -44 -12 -66 -33 -57 -55 3
-9 -3 -19 -14 -25 -43 -23 -90 -141 -60 -152 5 -2 1 -35 -11 -82 -26 -102 -22
-157 5 -73 27 82 39 83 31 1 -8 -89 -51 -205 -93 -255 -25 -29 -29 -39 -17
-39 9 0 27 11 41 25 30 30 34 31 34 6 0 -24 -44 -78 -70 -86 -26 -8 -26 -25 0
-25 11 0 20 -5 20 -11 0 -8 -20 -10 -61 -7 -43 3 -62 1 -66 -8 -3 -8 -16 -11
-36 -8 -20 4 -39 0 -52 -10 -19 -15 -19 -15 7 -16 15 0 30 -4 33 -10 4 -6 -6
-10 -22 -10 -15 0 -39 -6 -52 -13 -31 -16 -40 -37 -12 -30 28 7 27 -14 -1 -23
-25 -7 -58 -33 -58 -45 0 -4 14 -2 30 4 25 9 42 8 98 -10 37 -12 95 -24 130
-27 61 -4 64 -3 122 40 33 24 67 44 75 44 13 0 44 53 59 103 10 33 24 17 19
-23 -4 -26 -2 -40 6 -40 6 0 11 8 11 18 0 9 7 35 14 57 8 22 12 50 9 63 -3 13
-1 22 6 22 6 0 11 -17 12 -37 l1 -38 13 50 c8 28 17 67 20 88 7 41 22 49 27
15 3 -23 3 -23 21 4 11 16 19 48 20 82 2 42 6 56 17 56 12 0 14 12 12 60 -4
71 13 82 24 15 8 -58 24 -68 24 -16 0 47 2 49 30 21 28 -28 46 -26 27 3 -40
61 -43 148 -6 184 59 58 86 63 170 28 95 -40 97 -43 56 -101 -61 -86 -92 -173
-117 -323 -13 -77 -9 -149 15 -286 8 -50 10 -85 4 -96 -5 -10 -9 -48 -9 -85 0
-87 -41 -179 -97 -220 -21 -15 -62 -51 -91 -78 l-53 -51 7 -61 c4 -45 2 -69
-9 -90 -8 -16 -27 -82 -41 -146 -32 -143 -82 -276 -118 -317 -34 -37 -35 -50
-7 -85 20 -25 20 -28 5 -51 -12 -19 -25 -25 -51 -25 -45 0 -68 -33 -73 -110
-5 -64 13 -109 57 -147 57 -50 131 -9 131 71 0 23 7 50 15 60 8 11 15 39 15
63 0 34 5 48 26 66 39 33 44 49 60 170 26 199 48 269 105 340 27 34 64 91 82
126 39 78 57 88 57 34 -3 -237 -35 -458 -75 -520 -17 -25 -17 -27 5 -43 29
-22 22 -52 -15 -65 -17 -5 -36 -14 -42 -18 -20 -13 -16 -112 7 -156 18 -37 72
-91 90 -91 23 0 40 14 40 35 0 12 11 43 25 69 18 34 25 63 25 103 0 46 5 63
27 91 25 33 27 44 29 131 3 234 29 386 68 401 24 9 52 39 84 91 16 27 38 43
83 63 47 20 82 48 155 121 77 77 113 104 201 152 148 80 241 173 352 353 25
41 33 46 97 64 38 10 87 26 109 36 85 39 156 49 365 54 208 4 261 12 345 51
42 20 108 65 113 78 2 4 10 7 17 7 11 0 10 -10 -3 -51 -23 -71 -7 -77 123 -41
22 6 60 11 85 10 55 -2 206 24 237 40 13 7 28 22 34 35 7 12 31 45 54 72 24
28 54 75 69 106 14 31 49 82 77 114 49 56 51 60 44 103 -4 24 -9 50 -11 57 -6
14 70 85 90 85 22 0 27 -28 15 -74 -7 -24 -9 -76 -5 -126 5 -84 5 -85 -28
-130 -25 -35 -39 -45 -62 -46 -22 0 -28 -4 -26 -18 5 -29 -18 -47 -57 -44 -33
3 -38 0 -55 -37 -25 -50 -32 -132 -16 -180 11 -35 14 -36 45 -31 37 7 182 143
210 196 9 18 43 58 75 89 51 50 58 62 65 108 4 34 3 59 -5 74 -17 31 -6 160
20 234 26 75 26 79 -10 115 -16 17 -30 35 -30 40 0 20 -44 60 -66 60 -13 0
-44 -11 -69 -24 -25 -14 -67 -28 -92 -32 -26 -4 -62 -16 -81 -27 l-35 -21 -18
23 c-23 29 -23 31 1 133 11 46 20 98 20 116 0 32 0 32 50 32 66 0 136 34 144
69 14 66 43 66 77 -1 47 -94 99 -138 163 -138 13 0 27 -7 30 -16 6 -15 9 -15
29 4 21 20 30 21 112 15 65 -4 97 -11 114 -25 27 -21 70 -24 93 -5 8 6 25 29
37 49 12 21 36 46 52 55 37 22 39 60 4 93 -14 13 -25 31 -25 40 0 9 -4 20 -9
25 -5 6 -17 37 -27 69 -10 33 -33 82 -51 109 -34 51 -93 186 -93 214 0 22 -77
147 -122 198 -21 23 -38 47 -38 53 0 6 14 21 31 35 19 15 34 38 39 63 22 91 6
107 -50 49 -19 -19 -38 -35 -42 -35 -4 0 -8 34 -8 75 0 41 -3 75 -7 75 -3 0
-26 -20 -50 -45 -28 -30 -46 -60 -52 -86 -5 -23 -14 -46 -19 -51 -8 -8 -115
-21 -262 -32 -100 -8 -206 -40 -315 -94 -102 -51 -134 -73 -230 -157 -48 -41
-99 -82 -113 -89 -15 -8 -38 -26 -52 -41 -13 -14 -58 -45 -100 -67 -87 -48
-237 -144 -245 -158 -15 -23 -46 -4 -135 83 -58 55 -104 110 -117 137 -43 91
-63 136 -87 202 -36 97 -72 154 -106 168 -31 13 -37 24 -20 35 6 4 27 39 46
78 34 66 35 74 24 105 -11 31 -10 36 11 58 21 22 29 25 71 19 59 -8 67 12 14
37 -27 14 -34 23 -40 58 -27 169 -204 257 -361 180z m-190 -1024 c41 -25 65
-59 50 -74 -3 -4 -25 -8 -48 -9 -100 -6 -116 -3 -142 23 -31 31 -29 56 5 65
23 6 22 7 -7 8 -18 1 -33 5 -33 9 0 15 38 44 49 37 6 -3 11 -1 11 4 0 6 -4 11
-10 11 -5 0 -10 7 -10 15 0 12 -4 13 -19 5 -25 -13 -38 -13 -25 -1 5 6 25 13
44 16 19 3 36 8 38 10 3 2 15 -18 29 -45 17 -34 37 -56 68 -74z m2068 -118
c18 -43 32 -53 91 -67 83 -20 119 -44 223 -143 29 -28 50 -54 47 -59 -9 -15
-66 24 -76 53 -8 23 -13 25 -27 16 -13 -8 -33 -5 -82 12 -171 60 -165 57 -198
115 -33 58 -39 90 -18 98 23 10 27 7 40 -25z m-103 -1 c0 -7 -5 -18 -12 -25
-7 -7 -18 -12 -25 -12 -17 0 -17 37 0 43 22 10 37 7 37 -6z m-1880 -1 c0 -3
-4 -8 -10 -11 -5 -3 -10 -1 -10 4 0 6 5 11 10 11 6 0 10 -2 10 -4z m-455 -46
c-3 -5 -11 -10 -16 -10 -6 0 -7 5 -4 10 3 6 11 10 16 10 6 0 7 -4 4 -10z m436
-5 c-1 -15 -24 -12 -29 3 -3 9 2 13 12 10 10 -1 17 -7 17 -13z m1846 -21 c13
-34 -62 -144 -88 -128 -16 9 -10 28 27 87 37 59 50 68 61 41z m-2303 -29 c-4
-8 -10 -15 -15 -15 -4 0 -6 7 -3 15 4 8 10 15 15 15 4 0 6 -7 3 -15z m400 -17
c-3 -4 -9 -8 -15 -8 -5 0 -9 4 -9 8 0 5 7 9 15 9 8 0 12 -4 9 -9z m1984 -20
c5 -40 -47 -93 -104 -107 -56 -14 -81 0 -38 21 16 7 44 37 64 65 40 60 73 69
78 21z m-1353 -56 c17 -8 32 -16 34 -18 8 -7 -33 -33 -52 -34 -9 0 -26 -5 -36
-12 -26 -16 -51 5 -51 41 0 52 33 59 105 23z m1570 -9 c28 -10 66 -28 85 -39
19 -12 50 -27 68 -34 17 -7 32 -16 32 -21 0 -15 -44 -10 -68 7 -17 12 -26 13
-36 5 -8 -7 -31 -8 -57 -5 -36 6 -51 15 -81 51 -60 70 -51 76 57 36z m-2855
-19 c0 -8 -4 -12 -10 -9 -5 3 -10 10 -10 16 0 5 5 9 10 9 6 0 10 -7 10 -16z
m457 -1 c-9 -9 -19 -14 -23 -11 -10 10 6 28 24 28 15 0 15 -1 -1 -17z m-122
-73 c-5 -8 -11 -8 -17 -2 -6 6 -7 16 -3 22 5 8 11 8 17 2 6 -6 7 -16 3 -22z
m525 -185 l35 -8 -32 -11 c-17 -6 -35 -14 -39 -18 -4 -5 -16 -8 -26 -8 -14 0
-18 8 -18 41 0 41 0 41 23 26 12 -8 38 -18 57 -22z m1450 -525 c0 -25 -33 -71
-82 -114 l-53 -46 -5 27 c-4 22 -10 27 -28 25 -30 -4 -28 10 11 62 30 41 35
44 87 48 30 2 58 5 63 6 4 1 7 -3 7 -8z"/>
<path d="M2493 7384 c-29 -19 -53 -37 -53 -40 0 -2 34 -56 77 -119 42 -63 74
-117 72 -119 -2 -2 -36 6 -76 19 -40 13 -117 36 -172 50 l-100 27 -56 -44
c-30 -23 -55 -46 -55 -49 0 -6 144 -191 180 -231 8 -9 38 -46 65 -82 28 -36
55 -65 60 -65 6 0 30 17 54 39 l44 38 -82 112 c-45 62 -80 114 -78 116 6 6
114 -24 239 -66 l97 -33 50 33 c28 17 51 36 51 42 0 17 -245 408 -255 408 -5
0 -34 -16 -62 -36z"/>
<path d="M7820 7252 c-95 -46 -180 -172 -180 -267 0 -73 18 -112 75 -168 102
-97 241 -88 354 25 110 109 119 233 24 338 -24 27 -63 58 -86 69 -53 26 -138
27 -187 3z m168 -158 c22 -24 32 -43 32 -66 0 -60 -83 -148 -139 -148 -55 0
-111 55 -111 109 0 38 54 110 100 133 44 22 77 15 118 -28z"/>
<path d="M1835 6848 l-157 -152 73 -70 c41 -38 115 -108 164 -155 50 -47 97
-92 106 -99 14 -10 28 -1 95 65 44 43 107 104 142 136 34 32 62 61 62 64 0 3
-18 25 -39 48 l-40 43 -94 -89 c-53 -49 -99 -89 -104 -89 -5 0 -20 11 -32 24
l-22 23 82 81 83 80 -38 47 -38 46 -26 -23 c-15 -13 -53 -48 -85 -78 -67 -63
-75 -67 -83 -47 -3 10 25 44 81 99 48 45 93 87 101 91 8 4 14 12 14 18 0 12
-70 89 -80 89 -4 0 -78 -68 -165 -152z"/>
<path d="M4013 6923 c9 -2 25 -2 35 0 9 3 1 5 -18 5 -19 0 -27 -2 -17 -5z"/>
<path d="M8250 6822 c-58 -53 -143 -134 -189 -178 l-85 -82 55 -63 c97 -114
130 -147 164 -163 40 -19 107 -20 156 -2 51 18 150 96 184 147 27 38 30 50 30
118 0 69 -3 80 -32 121 -18 25 -48 63 -68 85 -20 22 -50 57 -68 78 -17 20 -34
37 -37 37 -3 0 -52 -44 -110 -98z m142 -139 c39 -50 46 -98 21 -131 -31 -42
-102 -92 -130 -92 -30 0 -75 30 -102 69 l-21 28 92 82 c50 44 96 81 102 81 6
-1 23 -17 38 -37z"/>
<path d="M3985 6890 c-10 -31 12 -60 45 -60 47 0 75 41 48 68 -17 17 -29 15
-22 -3 4 -8 1 -15 -4 -15 -6 0 -17 7 -26 15 -20 20 -33 19 -41 -5z"/>
<path d="M3518 6803 c7 -3 16 -2 19 1 4 3 -2 6 -13 5 -11 0 -14 -3 -6 -6z"/>
<path d="M3620 6795 c0 -8 5 -15 10 -15 6 0 10 7 10 15 0 8 -4 15 -10 15 -5 0
-10 -7 -10 -15z"/>
<path d="M3475 6780 c-3 -6 1 -7 9 -4 18 7 21 14 7 14 -6 0 -13 -4 -16 -10z"/>
<path d="M3407 6685 c-9 -19 -15 -35 -12 -35 7 0 37 61 33 66 -3 2 -12 -12
-21 -31z"/>
<path d="M3376 6615 c-3 -9 -5 -29 -5 -43 1 -20 3 -17 9 13 8 43 7 57 -4 30z"/>
<path d="M3190 6493 c0 -24 -1 -25 -17 -11 -10 8 -28 18 -40 21 -19 4 -23 1
-23 -19 0 -13 9 -28 20 -34 31 -17 24 -33 -10 -25 -33 7 -60 -7 -60 -31 0 -19
49 -29 72 -15 25 16 39 4 16 -13 -20 -14 -14 -28 8 -19 8 3 14 -1 14 -11 0 -9
5 -16 10 -16 6 0 10 7 10 15 0 20 20 19 36 -2 11 -16 13 -16 19 9 9 37 1 56
-27 60 -25 3 -39 38 -14 38 20 0 30 35 16 60 -15 28 -30 25 -30 -7z"/>
<path d="M1543 6481 c-62 -16 -138 -93 -262 -265 l-30 -43 199 -136 c109 -76
200 -137 203 -137 5 0 145 183 169 221 9 14 21 44 27 67 40 145 -155 331 -306
293z m80 -155 c42 -17 97 -80 97 -110 0 -34 -63 -121 -86 -120 -18 0 -184 119
-184 131 0 15 55 77 84 94 37 23 47 23 89 5z"/>
<path d="M4190 6475 c0 -9 5 -15 11 -13 6 2 11 8 11 13 0 5 -5 11 -11 13 -6 2
-11 -4 -11 -13z"/>
<path d="M2733 6418 c-18 -6 -33 -17 -33 -24 0 -18 1 -18 57 11 49 25 36 32
-24 13z"/>
<path d="M8610 6330 c-176 -126 -202 -160 -201 -258 0 -38 9 -70 33 -117 63
-127 124 -175 220 -175 48 0 68 8 198 81 80 45 149 85 153 89 5 4 -7 37 -25
74 l-33 66 -140 -85 c-175 -106 -199 -108 -250 -21 -30 50 -32 104 -7 132 10
10 73 55 140 99 67 44 122 85 122 92 0 18 -62 113 -74 113 -6 0 -67 -41 -136
-90z"/>
<path d="M2810 6385 c10 -11 9 -18 -3 -30 -20 -19 -51 -19 -67 0 -17 21 -37
19 -50 -5 -23 -42 16 -97 75 -107 29 -5 39 -1 65 25 36 36 40 78 10 110 -23
25 -50 31 -30 7z"/>
<path d="M3044 6335 c-4 -9 -1 -27 6 -41 17 -31 1 -53 -23 -30 -14 14 -16 14
-21 -1 -5 -12 -9 -14 -18 -5 -18 18 -26 15 -30 -10 -4 -27 -25 -35 -32 -11 -3
10 -4 7 -2 -7 2 -14 7 -34 11 -44 7 -17 5 -18 -21 -12 -27 7 -28 7 -12 -11 9
-10 18 -27 19 -37 5 -26 23 -30 42 -11 13 13 20 13 35 4 16 -10 27 -9 55 4 39
19 67 18 91 -2 18 -16 36 -7 36 19 0 12 8 20 23 22 34 5 26 31 -15 51 -39 18
-51 44 -20 44 9 0 22 -7 28 -15 6 -8 19 -12 30 -9 16 4 15 5 -5 6 -18 1 -22 6
-18 20 4 16 -1 18 -40 15 l-45 -3 6 30 c4 22 1 31 -10 36 -9 3 -19 0 -24 -6
-5 -9 -11 -8 -24 4 -15 15 -17 15 -22 0z m64 -112 c-5 -25 -28 -28 -28 -4 0
12 6 21 16 21 9 0 14 -7 12 -17z m-102 -52 c-10 -16 -36 -13 -36 3 0 17 21 27
34 16 4 -5 5 -13 2 -19z"/>
<path d="M3812 6318 c-7 -7 -12 -24 -12 -39 0 -18 -6 -28 -20 -32 -20 -5 -29
-27 -11 -27 21 0 71 59 71 84 0 28 -9 33 -28 14z"/>
<path d="M3883 6320 c-33 -13 -28 -21 7 -13 23 4 30 2 30 -10 0 -10 9 -14 30
-12 43 3 46 11 11 29 -34 18 -46 19 -78 6z"/>
<path d="M3450 6250 c-22 -13 -5 -23 27 -16 21 6 24 9 12 17 -18 11 -20 11
-39 -1z"/>
<path d="M3416 6241 c-4 -6 -22 -18 -39 -26 l-32 -15 43 4 c52 5 57 9 44 32
-6 11 -11 13 -16 5z"/>
<path d="M3490 6211 c0 -5 5 -11 11 -13 5 -2 -1 -16 -14 -32 -27 -31 -63 -32
-61 -3 2 13 -3 16 -17 12 -10 -4 -19 -2 -19 4 0 24 -30 -4 -35 -33 -20 -105
115 -168 188 -86 31 34 35 75 12 119 -17 34 -65 57 -65 32z"/>
<path d="M3822 6138 c-7 -7 -12 -16 -12 -21 0 -5 7 -1 16 8 9 9 14 18 12 20
-2 3 -10 -1 -16 -7z"/>
<path d="M2649 6106 c9 -11 7 -15 -10 -19 -11 -3 -18 -10 -15 -16 4 -6 14 -7
22 -4 9 3 20 0 24 -7 5 -8 15 -10 26 -6 18 7 18 8 1 17 -12 7 -16 17 -12 30 5
15 1 19 -21 19 -21 0 -24 -3 -15 -14z"/>
<path d="M3620 6046 c-8 -10 -8 -21 -2 -32 8 -14 10 -11 14 15 5 36 5 36 -12
17z"/>
<path d="M3740 6050 c0 -5 5 -10 11 -10 5 0 7 5 4 10 -3 6 -8 10 -11 10 -2 0
-4 -4 -4 -10z"/>
<path d="M2620 6029 c0 -15 -5 -19 -19 -14 -21 6 -37 -11 -39 -43 -1 -21 2
-22 54 -18 65 4 88 20 61 41 -13 10 -15 14 -5 18 8 4 7 6 -4 6 -10 1 -18 5
-18 10 0 5 -7 11 -15 15 -10 4 -15 -1 -15 -15z"/>
<path d="M1132 5960 c-18 -11 -47 -40 -65 -66 -37 -52 -177 -295 -177 -307 0
-7 421 -217 435 -217 8 0 65 104 65 118 0 7 -29 27 -65 44 -36 18 -65 38 -65
44 0 26 52 59 136 85 49 15 96 28 105 28 16 1 95 109 86 118 -3 2 -25 -1 -48
-8 -24 -6 -77 -15 -116 -18 l-73 -7 0 53 c0 68 -13 94 -63 126 -50 33 -108 35
-155 7z m88 -166 c0 -14 -13 -50 -30 -82 -46 -89 -43 -86 -79 -68 -17 9 -31
21 -31 27 0 19 70 128 92 143 27 19 48 10 48 -20z"/>
<path d="M3205 5873 c-22 -19 -31 -31 -20 -25 19 9 74 63 64 62 -2 -1 -22 -17
-44 -37z"/>
<path d="M2870 5885 c0 -9 5 -15 11 -13 6 2 11 8 11 13 0 5 -5 11 -11 13 -6 2
-11 -4 -11 -13z"/>
<path d="M3125 5830 c-13 -6 -15 -9 -5 -9 8 0 22 4 30 9 18 12 2 12 -25 0z"/>
<path d="M2958 5808 c5 -5 33 -11 62 -14 30 -3 52 -2 48 1 -3 4 -31 10 -62 14
-32 4 -53 4 -48 -1z"/>
<path d="M8943 5719 c-95 -18 -188 -89 -223 -171 -28 -65 -23 -143 15 -221 41
-89 109 -137 191 -137 34 0 34 0 34 49 0 27 -3 63 -6 80 -6 27 -11 31 -38 31
-52 1 -86 41 -86 102 0 58 84 118 164 118 26 0 40 -7 60 -31 34 -40 34 -88 0
-128 l-25 -30 44 -66 44 -66 41 46 c70 79 76 181 18 292 -59 111 -130 152
-233 132z"/>
<path d="M2665 5670 c-4 -6 -11 -8 -16 -5 -5 4 -9 2 -9 -4 0 -5 -7 -11 -16
-13 -16 -3 -26 -36 -26 -88 0 -33 45 -70 85 -70 44 1 76 28 84 73 6 38 -4 60
-38 77 -14 8 -16 6 -12 -9 3 -13 -3 -25 -20 -35 -26 -18 -57 -12 -57 10 0 8
-6 14 -12 14 -7 0 2 9 20 20 18 11 39 20 47 20 8 0 15 5 15 10 0 13 -37 13
-45 0z"/>
<path d="M1220 5323 c-224 -21 -417 -44 -475 -58 -25 -5 -73 -118 -58 -137 51
-68 151 -189 213 -258 42 -47 89 -100 105 -117 16 -18 31 -33 35 -33 4 0 17
31 30 68 l23 69 -27 36 -28 37 25 62 c14 35 39 93 56 131 30 66 31 67 68 67
49 0 55 5 87 67 39 78 41 75 -54 66z m-220 -157 c0 -10 -60 -136 -64 -136 -7
0 -79 110 -75 114 12 11 139 31 139 22z"/>
<path d="M2562 5220 c-10 -17 -10 -20 6 -20 10 0 23 -5 30 -12 8 -8 15 -8 26
2 20 16 12 30 -14 23 -14 -4 -20 0 -20 11 0 22 -13 20 -28 -4z"/>
<path d="M2576 5181 c-4 -7 -5 -15 -2 -18 9 -9 19 4 14 18 -4 11 -6 11 -12 0z"/>
<path d="M2601 5146 c-9 -11 -9 -15 1 -18 10 -4 10 -10 -1 -31 -13 -24 -12
-29 4 -47 22 -24 35 -26 35 -5 0 8 4 15 9 15 5 0 12 11 15 25 4 14 11 25 16
25 6 0 10 10 10 21 0 17 -4 20 -22 16 -12 -3 -29 -2 -39 3 -12 7 -20 5 -28 -4z
m39 -70 c0 -3 -4 -8 -10 -11 -5 -3 -10 -1 -10 4 0 6 5 11 10 11 6 0 10 -2 10
-4z"/>
<path d="M9085 5064 c-121 -41 -225 -76 -232 -78 -8 -3 -4 -31 13 -98 13 -51
36 -149 50 -218 15 -69 28 -126 29 -128 2 -2 31 2 65 9 l61 12 -7 41 c-3 22
-17 88 -30 146 -13 57 -24 110 -24 117 0 12 66 30 76 21 2 -3 16 -59 31 -124
14 -66 27 -121 29 -122 2 -4 115 19 122 24 2 1 -8 56 -22 123 -31 145 -31 151
-7 151 13 0 20 -9 24 -27 10 -63 59 -288 62 -291 5 -6 115 20 120 28 5 8 -25
151 -71 343 -29 117 -39 147 -52 146 -10 0 -116 -34 -237 -75z"/>
<path d="M606 4695 c-77 -27 -130 -106 -167 -247 -54 -208 14 -340 180 -355
112 -10 218 53 271 160 58 118 74 234 48 345 l-11 50 -91 21 c-50 12 -95 21
-101 21 -5 0 -25 -53 -44 -118 -19 -64 -36 -122 -38 -128 -5 -14 14 -22 76
-30 l49 -6 6 39 c16 89 47 83 35 -7 -10 -71 -38 -130 -75 -159 -40 -31 -113
-29 -153 5 -27 23 -31 32 -31 77 0 72 15 120 51 158 22 23 34 51 44 101 22
101 23 99 -49 73z"/>
<path d="M2250 2734 c-14 -3 -83 -25 -155 -49 -102 -35 -138 -43 -168 -38
l-38 6 3 -34 c3 -33 9 -38 75 -55 8 -2 8 -15 -3 -51 -54 -180 -82 -545 -50
-655 9 -31 28 -70 42 -87 30 -36 69 -43 61 -11 -3 10 -1 20 4 22 4 2 4 48 -2
103 -10 94 -7 190 7 264 6 27 16 36 63 58 31 14 75 28 99 31 27 3 46 11 52 23
15 27 -67 42 -129 23 -25 -7 -49 -14 -53 -14 -14 0 -8 44 26 175 l32 130 58
23 c32 13 88 30 124 38 37 9 81 19 97 23 17 4 30 13 30 21 0 30 -113 65 -175
54z"/>
<path d="M5900 2733 c-14 -2 -83 -24 -155 -48 -101 -35 -138 -43 -167 -38 -37
5 -38 5 -38 -24 0 -36 14 -50 55 -57 17 -2 31 -5 32 -5 0 -1 -5 -22 -13 -48
-50 -165 -81 -531 -54 -641 15 -64 62 -132 91 -132 16 0 20 5 16 20 -3 10 -1
20 4 22 4 2 4 48 -2 103 -10 93 -7 190 7 262 5 24 17 35 61 57 30 14 75 29 99
33 28 4 48 12 55 24 8 15 4 19 -27 25 -35 6 -99 1 -141 -12 -31 -9 -30 11 11
171 l33 130 73 28 c41 16 108 35 149 43 42 8 80 19 85 24 15 15 -13 39 -67 55
-51 15 -61 16 -107 8z"/>
<path d="M5142 2673 c-51 -65 -116 -214 -131 -298 -6 -38 -7 -39 -51 -42 -38
-2 -50 -8 -82 -44 -43 -48 -80 -120 -101 -200 -8 -31 -27 -74 -42 -95 l-27
-39 7 79 c3 43 15 126 25 185 31 169 28 189 -36 198 -48 6 -74 -14 -109 -84
-20 -37 -25 -42 -24 -23 1 14 1 32 0 41 -1 20 -40 32 -57 18 -17 -14 -54 -125
-54 -161 0 -25 -20 -67 -76 -165 -42 -73 -45 -17 -8 132 30 119 27 152 -14
161 -15 3 -46 13 -69 21 -39 14 -44 14 -81 -7 -68 -38 -128 -138 -142 -237
-13 -98 1 -133 56 -133 55 0 82 16 108 67 l25 48 1 -50 c1 -68 18 -99 56 -103
38 -4 78 26 105 80 l20 40 17 -33 c34 -67 95 -39 107 48 21 149 82 320 107
295 6 -6 6 -17 0 -28 -5 -11 -20 -59 -33 -109 -31 -120 -34 -282 -5 -314 30
-34 76 -27 108 15 l26 35 19 -31 c22 -38 51 -46 89 -27 38 20 59 44 81 92 l18
40 2 -45 c6 -97 57 -210 95 -210 29 0 78 44 102 94 14 29 26 56 26 60 0 4 14
37 31 74 54 114 87 202 79 207 -4 3 -12 -1 -17 -8 -9 -11 -81 -150 -140 -269
-13 -26 -28 -50 -33 -53 -21 -13 -33 53 -32 170 1 176 14 241 64 316 55 83
108 208 108 254 0 55 -15 75 -55 75 -27 0 -39 -7 -63 -37z m39 -133 c-22 -48
-30 -58 -30 -40 -1 32 22 119 40 150 l14 25 3 -35 c2 -24 -7 -58 -27 -100z
m-897 -225 c3 -8 -22 -70 -56 -137 -68 -135 -86 -138 -48 -9 25 84 42 121 65
145 20 20 31 20 39 1z m699 -97 c-6 -75 -38 -155 -82 -208 l-20 -25 -1 43 c0
71 69 262 96 262 10 0 12 -16 7 -72z"/>
<path d="M6910 2677 c-51 -25 -95 -142 -139 -366 l-17 -86 -47 -22 c-84 -40
-93 -40 -104 4 -10 38 -9 40 24 62 46 30 68 82 51 119 -11 22 -21 28 -56 30
-36 3 -47 -1 -71 -26 -33 -32 -53 -91 -45 -132 5 -22 -3 -39 -39 -86 -72 -92
-154 -177 -169 -172 -18 6 -22 82 -8 134 9 31 20 46 39 54 43 17 101 101 101
145 0 23 -30 45 -63 45 -39 0 -109 -71 -145 -149 -33 -71 -43 -217 -18 -255
25 -39 50 -48 94 -36 46 12 79 47 156 163 32 48 61 85 66 82 5 -3 12 -19 15
-36 6 -26 2 -37 -27 -68 -57 -60 -83 -113 -79 -158 3 -35 134 -58 182 -33 35
19 52 68 46 134 -3 34 -9 70 -12 82 -5 17 2 26 38 48 25 14 50 26 56 26 7 0
11 -38 11 -110 0 -114 10 -156 42 -165 47 -16 78 28 94 130 7 49 38 135 49
135 2 0 2 -53 -1 -117 -6 -139 2 -166 55 -171 40 -4 61 13 112 91 35 54 39 57
49 38 12 -24 28 -26 64 -10 27 13 31 24 45 125 14 98 47 199 76 231 32 37 31
22 -6 -106 -23 -79 -31 -129 -32 -196 -2 -117 16 -155 75 -155 29 0 59 33 93
100 l18 34 11 -33 c6 -19 23 -43 37 -53 23 -17 31 -18 67 -8 32 8 51 23 86 68
76 97 86 110 86 119 0 4 11 21 24 38 l24 30 11 -39 c10 -39 9 -41 -35 -88 -46
-49 -74 -101 -74 -138 0 -52 168 -68 209 -19 30 36 36 85 19 151 -8 32 -12 62
-9 67 11 18 162 84 171 75 4 -5 13 -27 19 -48 10 -39 9 -41 -35 -88 -46 -50
-74 -101 -74 -138 0 -28 53 -50 120 -50 97 0 141 80 107 191 -8 26 -12 52 -8
57 4 6 42 28 86 49 67 32 76 39 53 41 -15 2 -55 -8 -91 -22 -35 -14 -66 -26
-70 -26 -3 0 -11 17 -18 37 -11 33 -10 38 6 48 79 44 102 145 38 161 -81 21
-147 -46 -140 -142 l3 -52 -47 -5 c-26 -3 -66 -15 -88 -26 -53 -28 -58 -27
-71 14 -13 38 -2 65 25 65 18 0 55 62 55 92 0 49 -69 76 -121 48 -31 -17 -59
-84 -59 -140 0 -43 -6 -58 -39 -103 -61 -82 -148 -170 -162 -165 -19 6 -23 63
-9 124 9 43 16 54 40 64 32 13 74 63 91 106 23 63 -23 109 -80 79 -60 -30
-125 -133 -142 -221 -8 -40 -26 -81 -57 -127 -24 -37 -46 -66 -49 -64 -6 6 24
226 42 312 8 39 15 78 15 88 0 28 -37 57 -74 57 -38 0 -78 -38 -103 -97 -17
-42 -20 -41 -15 2 4 30 0 36 -23 47 -24 11 -29 10 -41 -6 -18 -26 -39 -102
-57 -209 -11 -64 -24 -101 -47 -137 -60 -93 -63 -90 -55 45 6 114 6 121 -15
148 -27 34 -71 36 -100 5 -11 -12 -30 -48 -42 -80 -11 -32 -23 -58 -26 -58 -8
0 9 126 23 172 8 23 32 94 54 155 22 62 45 140 52 173 10 52 9 63 -5 85 -19
28 -30 30 -66 12z m38 -74 c-3 -27 -13 -64 -22 -83 l-16 -35 6 69 c7 78 12 96
26 96 7 0 9 -19 6 -47z m-308 -245 c0 -30 -32 -78 -52 -78 -12 0 -10 68 2 91
6 10 20 19 30 19 16 0 20 -7 20 -32z m1298 2 c3 -30 -39 -87 -56 -76 -17 10
-15 58 4 84 20 29 48 25 52 -8z m300 -1 c4 -31 -38 -86 -56 -75 -17 10 -15 58
4 84 20 30 48 24 52 -9z m-1838 -41 c0 -22 -66 -105 -76 -96 -2 3 2 18 10 34
8 16 19 41 25 57 13 33 41 36 41 5z m1300 4 c0 -25 -58 -104 -70 -97 -6 4 -4
18 5 35 9 17 20 41 25 55 11 29 40 34 40 7z m-1156 -363 c-20 -22 -64 -26 -64
-5 0 30 22 72 48 93 l27 23 3 -46 c2 -33 -2 -52 -14 -65z m1316 71 c0 -49 -26
-90 -57 -90 -24 0 -25 2 -20 36 6 39 41 84 64 84 8 0 13 -12 13 -30z m298 -15
c-7 -54 -22 -75 -56 -75 -23 0 -24 3 -19 36 7 39 41 84 65 84 11 0 13 -10 10
-45z"/>
<path d="M3093 2577 c-21 -43 -22 -43 -91 -54 -76 -12 -123 -30 -130 -52 -5
-14 8 -13 141 6 20 3 37 2 37 -2 0 -4 -9 -37 -19 -73 -11 -37 -25 -92 -31
-124 -9 -48 -15 -57 -37 -63 -15 -3 -45 -15 -67 -26 -54 -26 -61 -25 -74 18
-6 20 -10 37 -9 38 1 0 19 13 39 28 77 56 70 147 -11 147 -23 0 -48 -8 -64
-20 -31 -25 -62 -100 -52 -130 5 -15 0 -28 -18 -46 -14 -14 -39 -53 -57 -87
-34 -67 -72 -127 -80 -127 -10 0 1 85 21 166 11 45 19 97 17 115 -3 32 -6 35
-73 57 l-70 23 -40 -21 c-65 -33 -131 -149 -141 -247 -12 -109 9 -140 84 -121
45 11 60 25 89 78 l18 36 0 -57 c0 -89 38 -119 106 -84 22 12 42 42 85 130 30
63 59 117 63 120 5 2 14 -16 21 -41 13 -44 12 -46 -17 -77 -43 -45 -81 -110
-85 -143 -3 -24 3 -32 32 -46 20 -11 58 -18 88 -18 48 0 57 4 84 32 32 35 31
20 16 193 -3 27 2 33 47 57 28 14 53 27 57 27 4 1 5 -50 1 -111 -7 -136 6
-211 44 -250 52 -54 98 -28 141 77 16 39 36 84 45 100 15 28 16 29 17 7 0 -13
14 -37 30 -54 26 -25 36 -29 62 -24 42 8 93 48 126 99 l27 41 5 -50 c7 -60 15
-74 44 -74 36 0 45 19 56 119 11 98 43 182 85 221 l22 20 -1 -42 c-1 -39 1
-43 25 -46 22 -3 29 3 43 33 10 20 20 51 23 70 4 27 1 35 -16 44 -36 20 -91
-8 -133 -67 l-16 -24 1 34 c2 32 1 33 -40 36 -41 3 -41 3 -57 -45 -8 -26 -19
-73 -24 -104 -7 -49 -16 -65 -67 -122 -83 -94 -105 -98 -105 -20 0 58 19 123
36 123 20 0 85 70 101 109 19 45 10 77 -26 89 -25 9 -36 7 -63 -11 -50 -34
-114 -136 -128 -204 -12 -60 -114 -283 -129 -283 -28 0 -28 227 -1 370 28 141
50 220 64 220 6 1 60 2 121 3 96 2 110 4 113 20 3 15 -7 17 -95 17 -54 0 -103
4 -110 8 -7 5 -11 26 -10 52 2 45 2 45 -33 48 -33 3 -37 0 -57 -41z m-233
-219 c0 -30 -32 -78 -52 -78 -12 0 -10 68 2 91 6 10 20 19 30 19 16 0 20 -7
20 -32z m570 -40 c-1 -23 -65 -106 -75 -96 -3 3 6 30 21 61 26 58 54 76 54 35z
m-930 -9 c0 -25 -109 -239 -121 -239 -20 0 47 208 77 242 23 24 44 23 44 -3z
m264 -350 c-20 -22 -64 -26 -64 -5 0 30 22 72 48 93 l27 23 3 -46 c2 -33 -2
-52 -14 -65z"/>
<path d="M6118 2353 c-18 -16 -40 -36 -48 -47 -15 -17 -16 -17 -15 10 0 27 -3
29 -40 29 -34 0 -42 -4 -53 -28 -37 -76 -55 -315 -28 -352 12 -16 19 -18 42
-10 25 9 30 17 36 65 22 158 47 228 98 275 19 17 19 16 13 -20 -6 -38 5 -55
37 -55 17 0 60 86 60 119 0 21 -26 41 -54 41 -8 0 -29 -12 -48 -27z"/>
</g>
</svg>
